<svg id="Layer_1" data-name="Layer 1" xmlns="http://www.w3.org/2000/svg" viewBox="0 0 145.42 121.89"><defs><style>.cls-1{fill:#fff;}</style></defs><title>uv</title><rect class="cls-1" y="121.56" width="145.42" height="0.34"/><path class="cls-1" d="M511.6,550.44a1.43,1.43,0,0,0,1.1-.57,9.1,9.1,0,0,0,1.23-2.2l15.67-35.45c.21-.51.45-1,.67-1.51a7.26,7.26,0,0,1,1.64-2.59l.06,0a3,3,0,0,1,.53-.39,3.76,3.76,0,0,1,.38-.21c-3.24,0-6.62-.07-9.86-.07a2.53,2.53,0,0,0-2,.79,5.59,5.59,0,0,0-.85,1.34l-.69,1.56-7.86,17.79-7.87-17.79-.69-1.56a5.65,5.65,0,0,0-.85-1.34,2.52,2.52,0,0,0-2-.79c-3.24,0-6.62.07-9.86.07l.38.21a3,3,0,0,1,.53.39l.06,0a7.22,7.22,0,0,1,1.64,2.59c.22.5.45,1,.67,1.51l15.67,35.45a9.1,9.1,0,0,0,1.23,2.2,1.43,1.43,0,0,0,1.09.57" transform="translate(-438.78 -450.71)"/><path class="cls-1" d="M492.83,513.67l15.27,34.51a10.12,10.12,0,0,0,1.44,2.51,3.14,3.14,0,0,0,.86.72,24.94,24.94,0,0,1-9-2.79q-.59-.3-1.15-.64l-.05,0a15.72,15.72,0,0,1-2.76-2.07,17.39,17.39,0,0,1-5.71-12.53l-.95-23.4c.58,0,.81.89,2.06,3.72m37.55,0-15.27,34.51a10.14,10.14,0,0,1-1.44,2.51,3.14,3.14,0,0,1-.86.72,25,25,0,0,0,9-2.79q.59-.3,1.15-.64l.05,0a15.77,15.77,0,0,0,2.76-2.07,17.38,17.38,0,0,0,5.71-12.53l.95-23.4c-.58,0-.81.89-2.06,3.72m-18.77,12,8.06-18.24c.48-1.1,1-2.22,1.54-3.27a15.69,15.69,0,0,1,2.43-3.5,10.92,10.92,0,0,1,15.71.23,10.48,10.48,0,0,1-1.57,15.68,11,11,0,0,1-2.26,1.26c-.7.29-.66.43-.63.62.14.78,3-.12,3.43-.25A18,18,0,0,0,532.93,483a18.41,18.41,0,0,0-16.09,9.34s0,0,0,0a41.2,41.2,0,0,0-5.2-41.61l0,0,0,0a41.21,41.21,0,0,0-5.2,41.61s0,0,0,0A18.4,18.4,0,0,0,490.27,483a18,18,0,0,0-5.39,35.22c.45.13,3.29,1,3.43.25,0-.19.07-.34-.63-.62a11,11,0,0,1-2.26-1.26,10.48,10.48,0,0,1-1.57-15.68,10.92,10.92,0,0,1,15.71-.23,15.74,15.74,0,0,1,2.43,3.5c.58,1.05,1.05,2.17,1.53,3.27Z" transform="translate(-438.78 -450.71)"/><path class="cls-1" d="M579.1,565.5a8.72,8.72,0,0,0-1.24.53.85.85,0,0,0-.53.77.76.76,0,0,0,.22.56.8.8,0,0,0,.57.21,1.16,1.16,0,0,0,.51-.12,2.06,2.06,0,0,0,.46-.33h0Zm1.9,1.75v.65a3.44,3.44,0,0,1-.43.27,1.55,1.55,0,0,1-.34.12l-.14,0h-.15a1.05,1.05,0,0,1-.57-.13.66.66,0,0,1-.28-.42,2.54,2.54,0,0,1-.74.41,2.25,2.25,0,0,1-.76.14,1.34,1.34,0,0,1-1.37-1.33,1.19,1.19,0,0,1,.51-1.07,5.09,5.09,0,0,1,1.12-.56l.15,0,.13,0,1-.35v-.29a.93.93,0,0,0-.25-.73,1.09,1.09,0,0,0-.76-.22h-.23a2.07,2.07,0,0,0-.8.27,2.82,2.82,0,0,0-.74.62v-1.2a2,2,0,0,1,.78-.55,2.88,2.88,0,0,1,1.07-.18,2.37,2.37,0,0,1,1.44.43,1.59,1.59,0,0,1,.59,1.37v2.8a.36.36,0,0,0,.06.23.21.21,0,0,0,.15.06.55.55,0,0,0,.24-.08,2.57,2.57,0,0,0,.34-.21m-8.48-4.61a2,2,0,0,0-.9.22,2.39,2.39,0,0,0-.76.6h0v-.72h-1.1v5.47h1.1V564.3a4,4,0,0,1,.43-.41,2,2,0,0,1,.4-.26,1.5,1.5,0,0,1,.57-.12,1,1,0,0,1,.8.36,1.46,1.46,0,0,1,.29,1v3.39h1.11v-3.37a2.24,2.24,0,0,0-.55-1.66,1.87,1.87,0,0,0-1.35-.54m-6.38,2.87a8.66,8.66,0,0,0-1.23.53.85.85,0,0,0-.53.77.75.75,0,0,0,.23.56.79.79,0,0,0,.57.21,1.15,1.15,0,0,0,.51-.12,2.06,2.06,0,0,0,.46-.33h0Zm1.56,2a2.26,2.26,0,0,0,.34-.21v.65a3.22,3.22,0,0,1-.43.27,1.46,1.46,0,0,1-.34.12l-.14,0H567a1.08,1.08,0,0,1-.57-.13.66.66,0,0,1-.28-.42,2.57,2.57,0,0,1-.74.41,2.25,2.25,0,0,1-.76.14,1.34,1.34,0,0,1-1.37-1.33,1.2,1.2,0,0,1,.51-1.07,5,5,0,0,1,1.12-.56l.14,0,.13,0,1-.35v-.29a.94.94,0,0,0-.25-.73,1.09,1.09,0,0,0-.76-.22h-.23a2.11,2.11,0,0,0-.8.27,2.75,2.75,0,0,0-.74.62v-1.2a2,2,0,0,1,.78-.55,2.88,2.88,0,0,1,1.07-.18,2.37,2.37,0,0,1,1.44.43,1.59,1.59,0,0,1,.59,1.37v2.8a.35.35,0,0,0,.06.23.21.21,0,0,0,.16.06.55.55,0,0,0,.24-.08m-6-4.72H557v1h2.83l-3,4.5h4.9v-1h-3ZM554,566.66a1.9,1.9,0,0,1-.61.57,1.4,1.4,0,0,1-.72.19,1.1,1.1,0,0,1-.86-.31,1.31,1.31,0,0,1-.29-.9v-3.47h-1.11v3.42a2.23,2.23,0,0,0,.54,1.6,1.83,1.83,0,0,0,1.39.57,1.4,1.4,0,0,0,.29,0l.3-.08a2.18,2.18,0,0,0,.56-.26,2.33,2.33,0,0,0,.49-.43v.69h1.11v-5.47H554Zm-5.74-3.92-.27-.08-.27,0a1.26,1.26,0,0,0-.79.33,3.76,3.76,0,0,0-.83,1h0v-1.25H545v5.47h1.11v-2.85a1.84,1.84,0,0,1,.39-1.19,1.18,1.18,0,0,1,1-.49.82.82,0,0,1,.29.06,1.65,1.65,0,0,1,.34.17l.21.14.19.15.58-.93a4,4,0,0,0-.41-.33,2,2,0,0,0-.39-.2m-6.58,4.56h-.26a1.94,1.94,0,0,1-1.37-.48,1.75,1.75,0,0,1-.52-1.34,1.9,1.9,0,0,1,.47-1.34,1.59,1.59,0,0,1,1.23-.51h.17l.16,0a2.19,2.19,0,0,1,.56.15,4.4,4.4,0,0,1,.66.35V563l-.25-.11-.25-.09a4.25,4.25,0,0,0-.52-.14,3.63,3.63,0,0,0-.61,0,2.62,2.62,0,0,0-2,.8,3,3,0,0,0-.74,2.15,2.6,2.6,0,0,0,.79,2,2.82,2.82,0,0,0,2,.76h.24l.26,0,.65-.12a1.88,1.88,0,0,0,.52-.18v-1.06c-.23.1-.45.18-.64.24a2.76,2.76,0,0,1-.58.12m-6.51-1.8a8.82,8.82,0,0,0-1.24.53.85.85,0,0,0-.53.77.74.74,0,0,0,.22.56.79.79,0,0,0,.57.21,1.15,1.15,0,0,0,.5-.12,2,2,0,0,0,.47-.33h0Zm1.56,2a2.33,2.33,0,0,0,.34-.21v.65a3.16,3.16,0,0,1-.43.27,1.43,1.43,0,0,1-.33.12l-.14,0H536a1.06,1.06,0,0,1-.57-.13.67.67,0,0,1-.28-.42,2.55,2.55,0,0,1-.74.41,2.24,2.24,0,0,1-.76.14,1.34,1.34,0,0,1-1.37-1.33,1.2,1.2,0,0,1,.51-1.07,5.2,5.2,0,0,1,1.12-.56l.14,0,.13,0,1-.35v-.29a.94.94,0,0,0-.25-.73,1.09,1.09,0,0,0-.76-.22h-.22a2.13,2.13,0,0,0-.8.27,2.79,2.79,0,0,0-.74.62v-1.2a2,2,0,0,1,.78-.55,2.88,2.88,0,0,1,1.07-.18,2.39,2.39,0,0,1,1.44.43,1.59,1.59,0,0,1,.59,1.37v2.8a.37.37,0,0,0,.06.23.22.22,0,0,0,.16.06.56.56,0,0,0,.24-.08m-6.34-4.72-.26-.08-.27,0a1.27,1.27,0,0,0-.79.33,3.92,3.92,0,0,0-.83,1h0v-1.25H527.1v5.47h1.11v-2.85a1.84,1.84,0,0,1,.39-1.19,1.19,1.19,0,0,1,1-.49.84.84,0,0,1,.29.06,1.64,1.64,0,0,1,.34.17l.21.14.19.15.58-.93a4,4,0,0,0-.41-.33,2,2,0,0,0-.38-.2M524,564.92a1.45,1.45,0,0,0-.38-1,1.23,1.23,0,0,0-.93-.37,1.45,1.45,0,0,0-1,.35,1.74,1.74,0,0,0-.49,1Zm1.09.73h-3.93a2,2,0,0,0,.61,1.24,1.86,1.86,0,0,0,1.27.41,3,3,0,0,0,.74-.1,3.78,3.78,0,0,0,.73-.28l.24-.14.24-.15v1l-.15.11-.16.09a3.31,3.31,0,0,1-.87.35,4.69,4.69,0,0,1-1,.1,2.42,2.42,0,0,1-2-.89,3.17,3.17,0,0,1-.7-2,2.81,2.81,0,0,1,.72-2,2.48,2.48,0,0,1,1.89-.77,2.25,2.25,0,0,1,1.77.75,3.35,3.35,0,0,1,.66,2.27M518.63,560h1.21l-3.59,8.39H516L512.32,560h1.22l2.55,5.84ZM506,563.81l-.27-.09-.24-.06-.25,0H505a1.72,1.72,0,0,0-1.29.51,1.91,1.91,0,0,0-.5,1.38,2.12,2.12,0,0,0,.37,1.28,1.54,1.54,0,0,0,1.33.51H506Zm0-3.92h1.11v8.32h-2.35a2.6,2.6,0,0,1-2-.77,2.9,2.9,0,0,1-.73-2.09,2.63,2.63,0,0,1,.78-2,2.77,2.77,0,0,1,2-.76h.22a2.44,2.44,0,0,1,.45.06,3.81,3.81,0,0,1,.5.15ZM499,565.5a8.6,8.6,0,0,0-1.23.53.85.85,0,0,0-.53.77.75.75,0,0,0,.22.56.81.81,0,0,0,.57.21,1.14,1.14,0,0,0,.5-.12,2,2,0,0,0,.47-.33h0Zm1.56,2a2.31,2.31,0,0,0,.34-.21v.65a3.23,3.23,0,0,1-.44.27,1.48,1.48,0,0,1-.33.12l-.14,0h-.16a1.06,1.06,0,0,1-.56-.13.66.66,0,0,1-.28-.42,2.5,2.5,0,0,1-.74.41,2.22,2.22,0,0,1-.76.14,1.34,1.34,0,0,1-1.37-1.33,1.19,1.19,0,0,1,.51-1.07,5,5,0,0,1,1.12-.56l.14,0,.13,0,1-.35v-.29a.94.94,0,0,0-.25-.73,1.1,1.1,0,0,0-.76-.22h-.23a2.14,2.14,0,0,0-.8.27,2.83,2.83,0,0,0-.74.62v-1.2a2,2,0,0,1,.78-.55,2.88,2.88,0,0,1,1.07-.18,2.37,2.37,0,0,1,1.44.43,1.59,1.59,0,0,1,.59,1.37v2.8a.36.36,0,0,0,.06.23.22.22,0,0,0,.15.06.54.54,0,0,0,.24-.08M493,563.81l-.27-.09-.24-.06-.26,0h-.27a1.71,1.71,0,0,0-1.29.51,1.91,1.91,0,0,0-.5,1.38,2.1,2.1,0,0,0,.37,1.28,1.55,1.55,0,0,0,1.33.51H493Zm0-3.92h1.11v8.32h-2.35a2.6,2.6,0,0,1-2-.77,2.9,2.9,0,0,1-.73-2.09,2.62,2.62,0,0,1,.78-2,2.76,2.76,0,0,1,2-.76H492a2.43,2.43,0,0,1,.45.06,3.85,3.85,0,0,1,.5.15ZM486,568.21h1.11v-5.47H486ZM483.7,566a2,2,0,0,0-.39-.4c-.17-.14-.38-.28-.63-.44a10.79,10.79,0,0,1-1-.67c-.21-.16-.31-.31-.31-.43a.42.42,0,0,1,.2-.36.9.9,0,0,1,.54-.14,2.43,2.43,0,0,1,.73.13,3.78,3.78,0,0,1,.88.43v-1.06a4.19,4.19,0,0,0-.84-.34,3.09,3.09,0,0,0-.8-.11,2.1,2.1,0,0,0-1.34.4,1.31,1.31,0,0,0-.5,1.09,1.2,1.2,0,0,0,.41.93,4.92,4.92,0,0,0,.9.66l.48.27.42.25a2.3,2.3,0,0,1,.29.26.38.38,0,0,1,.11.27.49.49,0,0,1-.24.44,1.19,1.19,0,0,1-.58.18,2.39,2.39,0,0,1-.81-.18,4.7,4.7,0,0,1-1-.55v1.18c.2.1.39.18.57.25a3.08,3.08,0,0,0,.52.15,3,3,0,0,0,.42.07l.44,0a2,2,0,0,0,1.32-.44,1.43,1.43,0,0,0,.52-1.16,1.11,1.11,0,0,0-.05-.36,1.25,1.25,0,0,0-.18-.34m-5.41-3.29-.27-.08-.27,0a1.28,1.28,0,0,0-.79.33,3.85,3.85,0,0,0-.82,1h0v-1.25H475v5.47h1.11v-2.85a1.83,1.83,0,0,1,.39-1.19,1.19,1.19,0,0,1,1-.49.85.85,0,0,1,.29.06,1.69,1.69,0,0,1,.34.17l.21.14.19.15.59-.93a4.11,4.11,0,0,0-.41-.33,2.08,2.08,0,0,0-.39-.2m-6.53,2.18a1.46,1.46,0,0,0-.38-1,1.23,1.23,0,0,0-.93-.37,1.44,1.44,0,0,0-1,.35,1.72,1.72,0,0,0-.49,1Zm1.09.73h-3.93a2,2,0,0,0,.61,1.24,1.88,1.88,0,0,0,1.27.41,3,3,0,0,0,.74-.1,3.73,3.73,0,0,0,.73-.28l.24-.14.25-.15v1l-.16.11-.16.09a3.29,3.29,0,0,1-.87.35,4.71,4.71,0,0,1-1,.1,2.41,2.41,0,0,1-2-.89,3.15,3.15,0,0,1-.7-2,2.8,2.8,0,0,1,.73-2,2.47,2.47,0,0,1,1.88-.77,2.24,2.24,0,0,1,1.77.75,3.35,3.35,0,0,1,.66,2.27m-7.31-2.91h1.18l-2.46,5.59h-.37l-2.52-5.59h1.21l1.5,3.36Zm-6.82,0h1.11v5.47h-1.11Zm-2.78.44a2.24,2.24,0,0,1,.55,1.66v3.37h-1.11v-3.39a1.47,1.47,0,0,0-.29-1,1,1,0,0,0-.8-.36,1.5,1.5,0,0,0-.57.12,2,2,0,0,0-.4.26,3.93,3.93,0,0,0-.42.41v3.92H451.8v-5.47h1.11v.72h0a2.38,2.38,0,0,1,.76-.6,2,2,0,0,1,.9-.22,1.86,1.86,0,0,1,1.35.54m-7.59-3h1.22v5.05a3.28,3.28,0,0,1-.94,2.46,3.89,3.89,0,0,1-2.83.92,4.12,4.12,0,0,1-2.44-.77,2.81,2.81,0,0,1-1.09-2.47v-5.18h1.22v4.91a3.89,3.89,0,0,0,.11,1.08,1.52,1.52,0,0,0,.4.64,2.36,2.36,0,0,0,.82.53,2.75,2.75,0,0,0,1,.18,3.31,3.31,0,0,0,1.2-.2,2.26,2.26,0,0,0,.79-.48,1.55,1.55,0,0,0,.43-.77,4.77,4.77,0,0,0,.1-1Zm11.58.86h0m-.66-.64a.64.64,0,0,0-.47.19.64.64,0,0,0,0,.92.67.67,0,0,0,.93,0,.64.64,0,0,0,0-.92.65.65,0,0,0-.47-.19m27.3,0a.65.65,0,0,0-.47.19.64.64,0,0,0,0,.92.67.67,0,0,0,.93,0,.64.64,0,0,0,0-.92.65.65,0,0,0-.47-.19m.66.64h0" transform="translate(-438.78 -450.71)"/></svg>